<svg xmlns="http://www.w3.org/2000/svg" viewBox="0 0 220 120" role="img" aria-hidden="true">
  <defs>
    <linearGradient id="riverA" x1="18" y1="26" x2="202" y2="50" gradientUnits="userSpaceOnUse">
      <stop offset="0" stop-color="#7ec7d0"/>
      <stop offset="1" stop-color="#2f7f89"/>
    </linearGradient>
    <linearGradient id="riverB" x1="12" y1="48" x2="206" y2="76" gradientUnits="userSpaceOnUse">
      <stop offset="0" stop-color="#5faab7"/>
      <stop offset="1" stop-color="#255e67"/>
    </linearGradient>
  </defs>
  <path d="M20 30c18-11 39-17 61-17 22 0 42 6 60 17 15 9 32 13 51 13" fill="none" stroke="url(#riverA)" stroke-width="10" stroke-linecap="round"/>
  <path d="M10 58c20-12 42-18 65-18 22 0 42 6 61 18 15 9 32 13 50 13" fill="none" stroke="url(#riverB)" stroke-width="10" stroke-linecap="round"/>
  <path d="M2 87c21-12 44-18 69-18 22 0 42 6 61 18 16 9 32 13 50 13" fill="none" stroke="url(#riverA)" stroke-width="10" stroke-linecap="round"/>
</svg>
